<?xml version="1.0" standalone="no"?>
<!DOCTYPE svg PUBLIC "-//W3C//DTD SVG 20010904//EN"
 "http://www.w3.org/TR/2001/REC-SVG-20010904/DTD/svg10.dtd">
<svg version="1.0" xmlns="http://www.w3.org/2000/svg"
 width="337.000000pt" height="369.000000pt" viewBox="0 0 337.000000 369.000000"
 preserveAspectRatio="xMidYMid meet">

<g transform="translate(0.000000,369.000000) scale(0.100000,-0.100000)"
fill="#000000" stroke="none">
<path d="M1485 3273 c4 -10 9 -59 12 -109 l6 -90 27 4 c26 4 27 6 19 41 -4 20
-9 67 -11 104 -2 67 -2 67 -31 67 -24 0 -28 -3 -22 -17z"/>
<path d="M1730 3196 c-28 -52 -51 -99 -51 -103 0 -4 6 -9 14 -11 9 -2 17 8 20
28 6 27 10 30 43 30 31 0 37 -4 47 -30 10 -27 49 -51 62 -38 4 4 -70 206 -79
215 -2 3 -28 -38 -56 -91z m50 -12 c13 -34 13 -34 -15 -34 -25 0 -31 13 -19
44 9 24 23 19 34 -10z"/>
<path d="M1266 3252 c-2 -4 1 -26 7 -49 6 -24 8 -45 5 -49 -9 -9 -81 -24 -89
-18 -4 2 -11 25 -15 50 -5 34 -10 44 -21 40 -8 -3 -20 -6 -28 -6 -10 0 -10 -7
0 -38 7 -20 19 -66 26 -102 7 -36 14 -67 15 -68 2 -2 16 -1 32 3 29 6 30 7 16
33 -26 49 -19 70 27 82 48 13 54 8 64 -51 6 -32 9 -35 31 -31 21 4 24 9 20 26
-4 11 -16 58 -27 104 -17 65 -25 82 -40 82 -10 0 -20 -3 -23 -8z"/>
<path d="M2045 3238 c-38 -20 -55 -51 -55 -101 0 -37 5 -53 24 -72 42 -42 137
-55 165 -21 15 18 25 66 13 66 -6 0 -17 3 -25 6 -10 4 -16 -5 -21 -30 -11 -60
-72 -62 -105 -4 -31 54 15 148 73 148 37 0 76 -24 77 -48 0 -14 2 -13 8 3 12
27 -2 41 -54 54 -54 14 -74 13 -100 -1z"/>
<path d="M872 3119 c-46 -22 -80 -44 -77 -49 4 -6 16 -2 32 10 14 11 30 17 35
14 12 -8 78 -152 78 -171 0 -11 4 -11 23 -2 12 6 23 13 25 14 2 2 -15 42 -38
91 -38 84 -40 89 -23 102 10 7 26 11 36 8 10 -2 17 0 14 7 -6 19 -20 16 -105
-24z"/>
<path d="M2371 3105 c-16 -14 -35 -41 -41 -61 -34 -101 123 -192 200 -115 51
51 52 106 3 156 -53 52 -114 60 -162 20z m131 -12 c36 -32 13 -136 -36 -162
-85 -46 -129 70 -57 148 32 34 65 39 93 14z"/>
<path d="M917 2582 c-152 -152 -277 -282 -277 -287 0 -5 159 -169 352 -362
l353 -353 -138 -138 c-75 -75 -137 -142 -137 -147 0 -6 29 -40 65 -75 l65 -65
243 243 c133 133 249 242 258 242 17 0 59 -40 59 -56 0 -13 -546 -558 -563
-562 -6 -1 -73 58 -147 133 l-135 135 145 145 145 146 -73 71 -73 72 -210
-210 c-115 -115 -209 -214 -209 -220 0 -13 542 -564 555 -564 6 0 168 158 360
350 192 193 354 350 359 350 4 0 48 -43 98 -94 49 -52 112 -114 139 -137 l50
-42 65 64 c35 35 64 68 64 74 0 5 -108 118 -240 250 -132 132 -240 245 -240
251 0 5 14 23 30 39 l31 29 287 -287 287 -287 -143 -142 -143 -142 -144 144
-145 145 -65 -65 c-36 -35 -65 -69 -65 -75 0 -6 95 -105 210 -220 l210 -210
280 280 c154 154 280 284 280 288 0 4 -158 164 -350 355 -193 191 -350 351
-350 356 0 5 62 72 137 148 l137 138 -69 70 -70 70 -247 -247 -247 -247 -31
29 c-16 16 -30 34 -30 39 0 6 126 137 280 291 l280 280 142 -142 142 -142
-142 -143 -142 -144 70 -69 70 -70 210 210 c116 115 210 214 210 220 0 6 -126
136 -280 290 l-280 280 -357 -358 -357 -357 -136 135 c-74 74 -140 135 -145
135 -13 0 -135 -122 -135 -135 0 -6 109 -119 242 -252 l242 -242 -29 -31 c-16
-16 -34 -30 -39 -30 -13 0 -566 551 -566 564 0 5 28 36 63 69 34 33 97 94 140
136 l78 75 137 -137 c75 -75 142 -137 147 -137 6 0 40 29 75 65 l65 65 -100
101 c-147 150 -302 304 -318 317 -10 9 -71 -47 -290 -266z"/>
<path d="M410 1152 c-86 -122 -93 -138 -59 -129 13 4 77 10 141 13 110 7 117
8 107 26 -7 13 -15 16 -27 9 -20 -10 -162 -24 -162 -15 0 14 94 124 107 124
10 0 9 9 -7 40 -11 22 -21 40 -23 39 -1 0 -36 -48 -77 -107z"/>
<path d="M2861 1187 c-26 -54 -26 -58 0 -91 27 -34 55 -33 129 4 59 30 84 31
94 4 7 -17 -8 -59 -25 -70 -7 -4 -26 -10 -43 -14 l-31 -7 29 -14 c27 -13 30
-12 52 16 48 60 43 141 -10 160 -24 8 -37 4 -91 -24 -36 -19 -70 -31 -79 -28
-30 12 -12 87 20 87 8 0 12 5 9 10 -13 21 -34 8 -54 -33z"/>
<path d="M2740 978 c-74 -51 -100 -134 -60 -196 29 -47 99 -77 144 -62 53 17
107 80 113 132 13 113 -106 188 -197 126z m103 -43 c82 -56 90 -148 15 -174
-28 -10 -39 -8 -77 11 -79 41 -110 111 -71 161 29 36 81 37 133 2z"/>
<path d="M537 921 c-99 -29 -125 -40 -115 -49 9 -7 19 -8 28 -2 25 16 56 11
78 -13 26 -28 27 -40 5 -78 -17 -29 -17 -30 10 -56 20 -20 27 -23 27 -12 0 9
25 66 55 128 30 62 55 114 55 117 0 6 -2 5 -143 -35z m63 -16 c0 -13 -31 -65
-39 -65 -5 0 -16 11 -25 25 -16 24 -16 26 6 35 26 10 58 13 58 5z"/>
<path d="M766 784 c-20 -19 -20 -65 -1 -128 17 -55 9 -76 -30 -76 -31 0 -58
34 -57 71 1 25 -2 28 -14 18 -21 -18 -17 -42 14 -71 56 -55 120 -56 144 -3 9
20 8 36 -5 79 -20 61 -21 92 -6 101 19 12 60 -5 71 -30 6 -14 15 -25 20 -25
17 0 7 21 -24 50 -37 33 -87 40 -112 14z"/>
<path d="M2455 715 c-17 -13 -25 -24 -19 -25 13 0 144 -172 144 -189 0 -7 19
1 43 18 86 63 99 75 92 94 -9 22 -25 22 -25 -1 0 -20 -39 -62 -58 -62 -10 0
-116 131 -138 172 -9 16 -12 15 -39 -7z"/>
<path d="M2295 623 c-33 -18 -63 -34 -67 -35 -4 -2 19 -55 51 -119 l58 -115
72 35 c48 24 71 41 71 53 0 24 -3 23 -38 -12 -42 -42 -65 -39 -88 11 -18 40
-18 42 1 55 10 8 27 14 37 14 20 0 22 8 10 28 -7 9 -13 8 -27 -8 -28 -31 -52
-25 -75 21 -12 23 -20 42 -18 44 14 11 50 25 67 25 20 0 30 24 14 33 -5 2 -35
-11 -68 -30z"/>
<path d="M970 633 c-45 -23 -85 -98 -75 -142 9 -42 40 -78 87 -102 51 -26 96
-22 117 11 l16 25 -27 -17 c-56 -36 -130 -9 -143 51 -7 33 15 94 47 128 48 51
125 36 153 -30 12 -28 14 -30 21 -13 10 25 -5 47 -52 73 -58 32 -103 37 -144
16z"/>
<path d="M2037 528 c-45 -12 -93 -57 -100 -94 -2 -15 0 -47 7 -73 16 -66 60
-94 139 -89 73 5 111 31 114 79 l2 34 -14 -32 c-28 -62 -104 -84 -146 -42 -27
27 -49 80 -49 119 0 63 98 118 138 78 15 -15 26 -4 19 17 -7 17 -51 19 -110 3z"/>
<path d="M1281 512 c-19 -9 -43 -33 -53 -52 -53 -101 20 -200 147 -200 37 0
52 6 82 33 31 29 37 41 41 90 4 54 3 58 -30 91 -32 32 -88 56 -133 56 -11 0
-35 -8 -54 -18z m134 -27 c43 -42 33 -136 -20 -189 -17 -16 -71 -21 -91 -8
-52 34 -41 165 17 206 33 23 66 20 94 -9z"/>
<path d="M1600 368 c0 -64 -3 -123 -6 -132 -5 -13 2 -16 37 -16 33 0 40 3 31
12 -12 12 -17 148 -6 148 4 0 44 -34 89 -75 46 -41 86 -75 89 -75 3 0 6 56 6
125 l0 125 -32 0 -33 0 3 -82 4 -83 -29 25 c-15 13 -56 51 -90 84 l-63 60 0
-116z"/>
</g>
</svg>
