<?xml version="1.0" standalone="no"?>
<!DOCTYPE svg PUBLIC "-//W3C//DTD SVG 20010904//EN"
 "http://www.w3.org/TR/2001/REC-SVG-20010904/DTD/svg10.dtd">
<svg version="1.0" xmlns="http://www.w3.org/2000/svg"
 width="467.000000pt" height="518.000000pt" viewBox="0 0 467.000000 518.000000"
 preserveAspectRatio="xMidYMid meet">

<g transform="translate(0.000000,518.000000) scale(0.100000,-0.100000)"
fill="#000000" stroke="none">
<path d="M2576 4909 c-24 -53 -156 -392 -156 -401 0 -4 19 -8 43 -8 41 0 43 1
57 43 15 41 17 42 62 45 62 4 88 -10 88 -49 0 -48 16 -69 54 -69 18 0 35 2 38
5 5 6 -66 442 -74 450 -2 3 -25 8 -51 11 -45 6 -46 6 -61 -27z m75 -250 c-11
-11 -81 3 -81 16 0 17 35 118 51 147 12 21 14 15 25 -67 6 -49 9 -93 5 -96z"/>
<path d="M1971 4911 c-11 -7 -8 -45 20 -225 l33 -216 38 0 c23 0 41 5 44 13 3
8 -9 97 -26 198 -43 258 -37 239 -68 239 -15 0 -33 -4 -41 -9z"/>
<path d="M1453 4764 c-18 -8 -33 -16 -33 -18 0 -2 16 -38 36 -81 19 -42 34
-78 32 -80 -14 -12 -91 -45 -105 -45 -13 0 -27 21 -47 68 -16 37 -33 71 -37
75 -5 7 -59 -13 -77 -28 -2 -2 177 -397 184 -404 2 -2 21 4 43 14 l39 17 -35
77 c-50 109 -50 103 2 129 25 12 51 22 59 22 7 0 30 -37 51 -82 21 -46 39 -84
41 -86 5 -7 74 28 74 37 0 16 -178 396 -187 397 -4 1 -23 -4 -40 -12z"/>
<path d="M3265 4731 c-77 -34 -142 -145 -153 -255 -6 -73 13 -113 72 -153 32
-21 56 -28 108 -31 l67 -4 37 78 c61 134 62 120 -6 154 -73 37 -78 37 -86 4
-5 -21 -2 -31 16 -44 l23 -18 -19 -48 c-26 -63 -59 -71 -105 -24 -28 28 -31
35 -25 73 9 59 61 161 97 191 43 37 80 34 128 -9 34 -31 42 -34 65 -25 25 9
26 11 12 37 -19 37 -44 59 -89 78 -48 20 -93 19 -142 -4z"/>
<path d="M734 4298 c-100 -92 -116 -120 -82 -142 14 -8 24 -4 54 24 l36 35
131 -138 132 -139 27 29 27 28 -124 135 c-69 74 -125 138 -125 143 0 4 14 20
32 36 29 26 31 31 20 55 -6 14 -16 26 -21 26 -4 0 -53 -41 -107 -92z"/>
<path d="M3883 4316 c-49 -22 -132 -105 -159 -158 -28 -55 -32 -124 -9 -169 9
-16 34 -43 57 -59 56 -41 114 -41 183 -1 98 56 184 185 171 255 -8 41 -41 92
-78 119 -35 26 -121 33 -165 13z m146 -82 c28 -36 26 -73 -5 -120 -62 -93
-142 -150 -194 -139 -52 11 -75 67 -49 118 21 40 82 109 122 138 52 38 98 39
126 3z"/>
<path d="M1265 3690 l-410 -410 520 -520 520 -520 -208 -208 -207 -207 105
-105 105 -105 358 358 c196 196 362 357 367 357 6 0 31 -20 55 -45 l45 -45
-410 -410 c-226 -226 -414 -410 -420 -410 -9 0 -277 261 -368 358 l-41 43 210
210 209 209 -100 100 c-55 55 -104 100 -110 100 -6 0 -150 -140 -320 -310
l-310 -310 410 -410 c225 -226 414 -410 420 -410 6 0 240 230 520 510 280 281
514 510 520 510 5 0 101 -91 212 -202 l203 -203 105 105 105 105 -362 362
-363 363 45 45 c24 25 49 45 55 45 5 0 195 -184 420 -410 l410 -410 -200 -200
c-110 -110 -204 -200 -210 -200 -6 0 -100 90 -210 200 -110 110 -204 200 -210
200 -6 0 -55 -45 -110 -100 l-100 -100 310 -310 c170 -171 314 -310 320 -310
6 0 195 185 420 410 l410 410 -520 520 -520 520 203 203 c111 111 202 206 202
212 0 14 -187 195 -202 195 -7 0 -173 -160 -368 -355 l-355 -355 -50 50 -50
50 415 415 415 415 202 -202 c112 -112 203 -206 203 -209 0 -4 -93 -99 -207
-213 l-208 -205 105 -106 105 -105 315 315 315 315 -410 410 c-225 226 -414
410 -419 410 -6 0 -242 -232 -525 -515 l-516 -515 -207 207 -207 207 -100 -99
c-56 -54 -101 -104 -101 -109 0 -6 161 -172 357 -368 l358 -358 -50 -50 -50
-50 -415 415 -415 415 205 205 205 205 205 -205 c113 -113 210 -205 215 -205
6 0 55 45 110 101 l100 100 -313 310 c-173 170 -317 309 -320 309 -4 0 -192
-185 -417 -410z"/>
<path d="M376 1299 l-106 -171 26 -34 c15 -19 29 -34 33 -34 8 0 351 187 360
196 3 2 -6 16 -20 29 l-24 25 -135 -80 c-74 -44 -139 -80 -144 -80 -10 0 0 16
101 164 l74 108 -22 24 c-12 13 -26 24 -30 24 -4 0 -55 -77 -113 -171z"/>
<path d="M4283 1414 c-41 -21 -62 -44 -77 -89 -16 -46 -10 -77 19 -109 36 -39
71 -43 140 -17 33 13 70 25 82 28 27 6 63 -29 63 -62 0 -31 -40 -71 -81 -80
-22 -5 -29 -12 -29 -31 0 -31 34 -32 90 -4 42 21 90 90 90 129 0 37 -28 85
-59 104 -40 23 -77 21 -150 -8 -67 -28 -94 -24 -106 15 -8 26 17 66 47 75 35
11 46 24 41 45 -6 24 -27 25 -70 4z"/>
<path d="M683 1009 c-90 -66 -163 -125 -163 -130 0 -16 51 -43 65 -33 7 5 24
17 39 28 l26 18 45 -36 45 -37 -21 -42 -21 -41 28 -23 c22 -17 31 -20 40 -10
6 6 43 93 83 192 l72 180 -33 27 c-18 15 -35 27 -38 27 -3 0 -78 -54 -167
-120z m117 -55 c-17 -37 -32 -70 -34 -72 -6 -5 -66 40 -66 49 0 12 125 108
128 99 2 -4 -11 -39 -28 -76z"/>
<path d="M3929 1100 c-69 -36 -92 -106 -64 -190 21 -63 111 -164 161 -180 92
-31 204 47 204 140 0 75 -83 200 -154 234 -45 21 -103 20 -147 -4z m112 -63
c44 -30 108 -123 115 -169 8 -45 -21 -78 -66 -78 -38 0 -101 56 -141 125 -36
63 -37 97 -3 124 34 27 53 26 95 -2z"/>
<path d="M1098 893 c-57 -36 -62 -118 -10 -182 47 -59 54 -76 40 -106 -23 -52
-94 -40 -130 22 -17 29 -22 31 -44 21 -29 -14 -30 -21 -3 -65 39 -62 147 -96
207 -64 31 16 62 69 62 104 0 34 -12 59 -57 113 -38 47 -42 77 -12 98 27 19
47 12 84 -29 25 -27 34 -32 53 -24 27 10 27 15 2 57 -23 37 -88 72 -135 72
-16 -1 -42 -8 -57 -17z"/>
<path d="M3535 848 c-11 -6 -21 -12 -23 -14 -7 -5 183 -354 193 -354 26 1 170
90 173 107 6 43 -12 46 -77 14 l-61 -31 -20 32 c-11 18 -46 84 -77 145 -59
114 -69 123 -108 101z"/>
<path d="M3260 733 c-52 -19 -96 -36 -98 -37 -4 -4 125 -366 133 -375 4 -3 51
10 106 29 96 33 100 35 94 60 -4 14 -8 27 -10 29 -3 2 -32 -7 -65 -19 -66 -25
-71 -23 -89 29 -15 47 -14 61 7 68 78 28 83 31 71 57 -11 24 -12 24 -51 10
-58 -20 -67 -18 -84 22 -22 52 -15 65 41 84 38 13 51 22 53 39 2 13 0 27 -5
31 -4 4 -51 -8 -103 -27z"/>
<path d="M1501 713 c-93 -46 -152 -231 -102 -323 25 -47 93 -83 145 -77 47 6
60 18 51 46 -5 17 -14 21 -51 21 -81 0 -104 56 -68 168 35 106 102 145 159 92
21 -20 28 -22 50 -12 32 15 31 22 -2 54 -52 50 -120 61 -182 31z"/>
<path d="M2901 638 c-81 -23 -112 -71 -112 -174 0 -164 91 -266 209 -235 23 7
54 23 69 36 l28 24 -22 22 -21 22 -28 -22 c-53 -41 -101 -25 -132 46 -60 140
-24 240 78 219 23 -4 32 -1 40 14 16 31 12 38 -27 49 -21 6 -40 11 -43 10 -3
0 -20 -5 -39 -11z"/>
<path d="M1889 608 c-53 -36 -91 -120 -92 -210 -3 -125 48 -183 160 -183 64 0
66 1 103 42 66 75 88 231 42 304 -41 67 -148 90 -213 47z m121 -48 c36 -19 45
-78 25 -165 -25 -115 -70 -151 -129 -104 -23 18 -26 27 -26 83 0 144 57 225
130 186z"/>
<path d="M2523 574 c-3 -9 -3 -73 1 -142 7 -149 3 -147 -65 36 l-42 113 -51
-3 c-41 -2 -51 -6 -50 -20 0 -10 1 -99 2 -198 l2 -180 35 0 34 0 3 135 3 135
50 -132 50 -133 54 -3 54 -3 -6 152 c-4 84 -7 176 -7 206 0 52 0 53 -30 53
-19 0 -33 -6 -37 -16z"/>
</g>
</svg>
